<svg xmlns="http://www.w3.org/2000/svg" width="60.252" height="59.777" viewBox="0 0 60.252 59.777">
  <g id="Group_5119" data-name="Group 5119" transform="translate(-574 -1063)">
    <g id="Group_5116" data-name="Group 5116">
      <g id="Group_5114" data-name="Group 5114">
        <g id="Group_5103" data-name="Group 5103" transform="translate(1793.482 884.226)">
          <path id="Path_10225" data-name="Path 10225" d="M-1190.92,279.817v1.8c.18.008.351.022.523.022,1.249,0,2.5-.034,3.746.008a3.62,3.62,0,0,0,3.632-4.79,1.647,1.647,0,0,1-.037-.178c1.167-.8,2.339-1.606,3.516-2.406.562-.382,1.116-.782,1.705-1.119a3,3,0,0,1,3.958.929,2.945,2.945,0,0,1-.533,3.989c-1.507,1.175-3.089,2.254-4.643,3.368-1.488,1.067-2.987,2.12-4.47,3.195a1.627,1.627,0,0,1-1.025.335c-2.984-.015-5.968-.008-8.953-.008h-.591l.539,1.112-5.553,2.9-5.376-10.3,5.559-2.9,1.058,1.992c.529-.528,1.053-1,1.52-1.53a3.533,3.533,0,0,1,2.023-1.163,6.5,6.5,0,0,1,3.268.1,2.161,2.161,0,0,1,1.313.94c.063.109.295.166.45.169.908.016,1.817,0,2.725.009a1.807,1.807,0,0,1,1.937,1.8,1.8,1.8,0,0,1-1.957,1.721C-1188.011,279.82-1189.437,279.817-1190.92,279.817Z" transform="translate(0 -68.596)" fill="#fff"/>
          <path id="Path_10226" data-name="Path 10226" d="M-1122.946,201.809V203.3h-1.834v-1.459h-1.6v1.1h-1.808v-2.955h.55c2.774,0,5.547-.006,8.321.007a.513.513,0,0,0,.588-.406,4.107,4.107,0,0,1,4.544-2.759,4.163,4.163,0,0,1,3.453,3.962,4.142,4.142,0,0,1-3.3,4.13,4.071,4.071,0,0,1-4.64-2.575.674.674,0,0,0-.791-.545c-.972.036-1.946.011-2.919.011Zm8.1,1.346a2.281,2.281,0,0,0,2.275-2.29,2.3,2.3,0,0,0-2.277-2.247,2.272,2.272,0,0,0-2.284,2.273A2.256,2.256,0,0,0-1114.842,203.155Z" transform="translate(-68.867 0)" fill="#fff"/>
        </g>
        <g id="Group_5112" data-name="Group 5112" transform="translate(574 1063)">
          <path id="Path_10235" data-name="Path 10235" d="M-230.8,143.727h-8.828l-.016-.093,7.1-.9a11.514,11.514,0,0,0-.776-1.081c-6.838-7.381-15.236-10.7-25.272-9.519A27.682,27.682,0,0,0-277.9,143.166a1.858,1.858,0,0,1-1.358.513c5.459-7.734,12.906-12.141,22.327-12.7,10.965-.654,19.653,3.828,26.279,12.409Z" transform="translate(285.293 -130.914)" fill="#fff"/>
          <path id="Path_10236" data-name="Path 10236" d="M-141.1,205.964c3.862,9.111,3.662,18.154-1.175,26.861-5.109,9.2-13.183,14.086-23.929,15.378l5.01-8.69.2.1-3.34,7.287a21.692,21.692,0,0,0,6.9-1.786,28.686,28.686,0,0,0,17.672-30.7c-.285-2.1-1.01-4.141-1.487-6.219a21.946,21.946,0,0,1-.286-2.213Z" transform="translate(198.661 -188.425)" fill="#fff"/>
          <path id="Path_10237" data-name="Path 10237" d="M-302.143,202.772l5.3,9.171-.164.1-4.9-6.969a8.42,8.42,0,0,0-.486.99c-3.471,10.755-1.739,20.531,5.714,29.1a28.229,28.229,0,0,0,16.848,9.292,6.407,6.407,0,0,1,1.94.906c-6.646.13-16.325-4.3-21.813-12.468C-306.067,223.437-306.642,213.455-302.143,202.772Z" transform="translate(305.076 -185.979)" fill="#fff"/>
        </g>
      </g>
    </g>
  </g>
</svg>
