<svg xmlns="http://www.w3.org/2000/svg" width="60.252" height="59.777" viewBox="0 0 60.252 59.777">
  <g id="Group_5115" data-name="Group 5115" transform="translate(-574 -1169)">
    <g id="Group_5112" data-name="Group 5112" transform="translate(574 1169)">
      <path id="Path_10235" data-name="Path 10235" d="M-230.8,143.727h-8.828l-.016-.093,7.1-.9a11.514,11.514,0,0,0-.776-1.081c-6.838-7.381-15.236-10.7-25.272-9.519A27.682,27.682,0,0,0-277.9,143.166a1.858,1.858,0,0,1-1.358.513c5.459-7.734,12.906-12.141,22.327-12.7,10.965-.654,19.653,3.828,26.279,12.409Z" transform="translate(285.293 -130.914)" fill="#fff"/>
      <path id="Path_10236" data-name="Path 10236" d="M-141.1,205.964c3.862,9.111,3.662,18.154-1.175,26.861-5.109,9.2-13.183,14.086-23.929,15.378l5.01-8.69.2.1-3.34,7.287a21.692,21.692,0,0,0,6.9-1.786,28.686,28.686,0,0,0,17.672-30.7c-.285-2.1-1.01-4.141-1.487-6.219a21.946,21.946,0,0,1-.286-2.213Z" transform="translate(198.661 -188.425)" fill="#fff"/>
      <path id="Path_10237" data-name="Path 10237" d="M-302.143,202.772l5.3,9.171-.164.1-4.9-6.969a8.42,8.42,0,0,0-.486.99c-3.471,10.755-1.739,20.531,5.714,29.1a28.229,28.229,0,0,0,16.848,9.292,6.407,6.407,0,0,1,1.94.906c-6.646.13-16.325-4.3-21.813-12.468C-306.067,223.437-306.642,213.455-302.143,202.772Z" transform="translate(305.076 -185.979)" fill="#fff"/>
    </g>
    <text id="CCG" transform="translate(584 1205)" fill="#fff" font-size="18" font-family="Poppins-ExtraBold, Poppins" font-weight="800"><tspan x="0" y="0">CCG</tspan></text>
  </g>
</svg>
