<svg xmlns="http://www.w3.org/2000/svg" width="60.252" height="59.777" viewBox="0 0 60.252 59.777">
  <g id="Group_5118" data-name="Group 5118" transform="translate(-570 -963)">
    <g id="Group_5117" data-name="Group 5117">
      <g id="Group_5113" data-name="Group 5113" transform="translate(-0.101 -0.1)">
        <g id="Group_5102" data-name="Group 5102" transform="translate(587.101 980.1)">
          <path id="Path_10220" data-name="Path 10220" d="M-787.634,9a.456.456,0,0,1,.268.481c-.008,1.082,0,2.165,0,3.247,0,.361-.094.451-.465.452-.9,0-1.792,0-2.688,0a3.214,3.214,0,0,0-2.306.94,3.147,3.147,0,0,0-.991,2.3c0,.917,0,1.835,0,2.752,0,.357-.09.452-.441.453-1.1,0-2.208,0-3.312,0a.422.422,0,0,1-.426-.226V15.8a.862.862,0,0,0,.043-.118,12.292,12.292,0,0,1,.3-1.421,7.344,7.344,0,0,1,5.344-5.028c.431-.116.882-.155,1.324-.229Z" transform="translate(798 -9)" fill="#fff"/>
          <path id="Path_10221" data-name="Path 10221" d="M-798,376a.41.41,0,0,1,.4-.225c1.124,0,2.249,0,3.373,0,.3,0,.4.11.4.428,0,.9,0,1.8,0,2.707a3.284,3.284,0,0,0,2.476,3.219,3.287,3.287,0,0,0,.784.093c.9.011,1.8,0,2.707,0,.4,0,.482.082.483.477,0,1.074,0,2.149,0,3.223a.456.456,0,0,1-.269.481h-3.355c-.169-.017-.34-.025-.508-.054a7.888,7.888,0,0,1-2.537-.821,7.364,7.364,0,0,1-3.8-5.066c-.068-.311-.115-.627-.171-.941Z" transform="translate(798 -359.996)" fill="#fff"/>
          <path id="Path_10222" data-name="Path 10222" d="M-420.62,19.366a.448.448,0,0,1-.479.27c-1.075-.008-2.151,0-3.226,0-.39,0-.475-.088-.475-.486,0-.86.007-1.72,0-2.581a3.279,3.279,0,0,0-1.492-2.842,3.22,3.22,0,0,0-1.847-.543h-2.624c-.41,0-.487-.08-.487-.495,0-1.061.005-2.122,0-3.183a.47.47,0,0,1,.269-.5h3.355c.07.013.139.025.209.039a14.961,14.961,0,0,1,1.654.342,7.272,7.272,0,0,1,3.626,2.591,7.132,7.132,0,0,1,1.359,3.047c.069.371.11.747.164,1.12Z" transform="translate(447.029 -9)" fill="#fff"/>
          <path id="Path_10223" data-name="Path 10223" d="M-609.2,192.7a5.283,5.283,0,0,1,5.3,5.321,5.294,5.294,0,0,1-5.334,5.289A5.289,5.289,0,0,1-614.523,198,5.28,5.28,0,0,1-609.2,192.7Z" transform="translate(622.415 -184.8)" fill="#fff"/>
          <path id="Path_10224" data-name="Path 10224" d="M-361.358,442.661a3.132,3.132,0,0,1,3.159,3.194,3.142,3.142,0,0,1-3.261,3.116,3.135,3.135,0,0,1-3.062-3.163A3.128,3.128,0,0,1-361.358,442.661Z" transform="translate(383.167 -424.009)" fill="#fff"/>
        </g>
        <g id="Group_5112" data-name="Group 5112" transform="translate(570.101 963.1)">
          <path id="Path_10235" data-name="Path 10235" d="M-230.8,143.727h-8.828l-.016-.093,7.1-.9a11.514,11.514,0,0,0-.776-1.081c-6.838-7.381-15.236-10.7-25.272-9.519A27.682,27.682,0,0,0-277.9,143.166a1.858,1.858,0,0,1-1.358.513c5.459-7.734,12.906-12.141,22.327-12.7,10.965-.654,19.653,3.828,26.279,12.409Z" transform="translate(285.293 -130.914)" fill="#fff"/>
          <path id="Path_10236" data-name="Path 10236" d="M-141.1,205.964c3.862,9.111,3.662,18.154-1.175,26.861-5.109,9.2-13.183,14.086-23.929,15.378l5.01-8.69.2.1-3.34,7.287a21.692,21.692,0,0,0,6.9-1.786,28.686,28.686,0,0,0,17.672-30.7c-.285-2.1-1.01-4.141-1.487-6.219a21.946,21.946,0,0,1-.286-2.213Z" transform="translate(198.661 -188.425)" fill="#fff"/>
          <path id="Path_10237" data-name="Path 10237" d="M-302.143,202.772l5.3,9.171-.164.1-4.9-6.969a8.42,8.42,0,0,0-.486.99c-3.471,10.755-1.739,20.531,5.714,29.1a28.229,28.229,0,0,0,16.848,9.292,6.407,6.407,0,0,1,1.94.906c-6.646.13-16.325-4.3-21.813-12.468C-306.067,223.437-306.642,213.455-302.143,202.772Z" transform="translate(305.076 -185.979)" fill="#fff"/>
        </g>
      </g>
    </g>
  </g>
</svg>
